<svg xmlns="http://www.w3.org/2000/svg" xmlns:xlink="http://www.w3.org/1999/xlink" width="500" zoomAndPan="magnify" viewBox="0 0 375 374.999991" height="500" preserveAspectRatio="xMidYMid meet" version="1.0"><defs><clipPath id="8a1b115a3b"><path d="M 59.320312 9.160156 L 315.820312 9.160156 L 315.820312 74 L 59.320312 74 Z M 59.320312 9.160156 " clip-rule="nonzero"/></clipPath><clipPath id="ea67d3e929"><path d="M 59.320312 66 L 99 66 L 99 366.160156 L 59.320312 366.160156 Z M 59.320312 66 " clip-rule="nonzero"/></clipPath><clipPath id="496cefa906"><path d="M 107 80 L 315.820312 80 L 315.820312 366.160156 L 107 366.160156 Z M 107 80 " clip-rule="nonzero"/></clipPath></defs><rect x="-37.5" width="450" fill="#ffffff" y="-37.499999" height="449.999989" fill-opacity="1"/><rect x="-37.5" width="450" fill="#ffffff" y="-37.499999" height="449.999989" fill-opacity="1"/><path fill="#000000" d="M 86.183594 32.753906 C 83.890625 35.078125 82.65625 38.167969 82.707031 41.429688 C 82.828125 47.960938 88.238281 53.277344 94.769531 53.277344 L 292.96875 53.277344 C 290.824219 49.433594 289.71875 45.367188 289.71875 41.222656 C 289.71875 37.078125 290.824219 33 292.976562 29.160156 L 94.789062 29.160156 C 91.53125 29.148438 88.464844 30.429688 86.183594 32.753906 Z M 86.183594 32.753906 " fill-opacity="1" fill-rule="evenodd"/><g clip-path="url(#8a1b115a3b)"><path fill="#000000" d="M 94.78125 20.582031 L 301.507812 20.582031 C 301.59375 20.582031 301.671875 20.582031 301.757812 20.582031 L 309.695312 20.582031 C 312.871094 20.582031 315.507812 18.246094 315.6875 15.261719 C 315.796875 13.59375 315.207031 12.011719 314.03125 10.820312 C 312.96875 9.765625 311.527344 9.160156 310.007812 9.160156 L 91.378906 9.160156 C 73.714844 9.160156 59.339844 23.539062 59.339844 41.210938 C 59.339844 58.886719 73.714844 73.265625 91.378906 73.265625 L 309.71875 73.265625 C 312.890625 73.265625 315.527344 70.929688 315.710938 67.945312 C 315.820312 66.277344 315.226562 64.695312 314.054688 63.503906 C 312.988281 62.4375 311.546875 61.84375 310.03125 61.84375 L 301.929688 61.84375 C 301.84375 61.855469 301.757812 61.855469 301.679688 61.855469 L 301.421875 61.84375 L 94.800781 61.84375 C 83.625 61.84375 74.382812 52.75 74.175781 41.566406 C 74.089844 35.980469 76.199219 30.71875 80.117188 26.738281 C 83.988281 22.765625 89.21875 20.582031 94.78125 20.582031 Z M 94.78125 20.582031 " fill-opacity="1" fill-rule="evenodd"/></g><g clip-path="url(#ea67d3e929)"><path fill="#000000" d="M 59.320312 66.128906 L 59.320312 339.09375 C 59.320312 353.300781 70.410156 365.148438 84.558594 366.085938 C 85.054688 366.105469 85.730469 366.148438 86.367188 366.148438 L 98.707031 366.148438 L 98.707031 81.832031 L 91.371094 81.832031 C 78.351562 81.832031 66.753906 75.6875 59.320312 66.128906 Z M 59.320312 66.128906 " fill-opacity="1" fill-rule="evenodd"/></g><path fill="#000000" d="M 264.382812 201.75 C 263.574219 205.160156 261.402344 208.1875 258.238281 210.285156 C 256.988281 211.101562 255.214844 214.417969 255.097656 215.785156 C 254.933594 217.570312 256.441406 219.488281 257.914062 220.648438 L 258.042969 220.746094 C 259.839844 222.199219 263.585938 225.210938 262.421875 229.765625 C 261.863281 231.980469 260.28125 233.359375 259.335938 234.175781 L 259.152344 234.328125 C 257.851562 235.46875 257.945312 237.632812 258.507812 241.90625 C 272.417969 229.164062 281.152344 210.84375 281.152344 190.535156 C 281.152344 178.835938 278.257812 167.804688 273.136719 158.117188 C 271.6875 160.335938 269.640625 162.046875 267.84375 163.542969 C 267.265625 164.015625 266.695312 164.5 266.15625 164.984375 C 261.359375 169.320312 259.054688 176.242188 260.304688 182.601562 C 260.832031 185.273438 261.679688 187.027344 262.574219 188.867188 C 264.101562 192.03125 265.824219 195.59375 264.382812 201.75 Z M 264.382812 201.75 " fill-opacity="1" fill-rule="evenodd"/><path fill="#000000" d="M 222.863281 170.128906 C 228.964844 172.949219 232.976562 179.382812 232.847656 186.109375 C 232.71875 192.816406 228.46875 199.089844 222.28125 201.695312 C 221.917969 201.847656 221.539062 201.996094 221.152344 202.136719 C 220.65625 202.332031 219.894531 202.621094 219.699219 202.792969 C 219.558594 202.945312 219.378906 203.535156 219.152344 204.484375 C 217.011719 213.535156 216.699219 217.074219 218.441406 226.503906 C 219.171875 230.453125 220.257812 236.417969 216.203125 240.636719 C 214.167969 242.746094 211.566406 243.628906 208.886719 243.628906 C 205.464844 243.628906 201.9375 242.183594 199.269531 240.011719 C 197.785156 238.792969 196.535156 237.472656 195.34375 236.179688 C 193.835938 234.566406 192.40625 233.035156 190.824219 232.144531 C 189.285156 231.273438 187.316406 230.808594 185.21875 230.324219 C 182.777344 229.742188 180 229.109375 177.40625 227.65625 C 171.984375 224.609375 170.089844 219.378906 168.421875 214.761719 C 167.722656 212.855469 167.078125 211.046875 166.207031 209.421875 L 166.066406 209.175781 C 164.59375 206.570312 162.042969 206.96875 161.289062 207.164062 C 159.710938 207.5625 157.988281 208.875 157.976562 211.359375 C 157.957031 213.449219 157.945312 215.535156 157.933594 217.625 C 157.914062 220.691406 156.804688 223.480469 155.835938 225.933594 C 155.511719 226.75 155.210938 227.515625 154.976562 228.226562 C 154.761719 228.882812 154.492188 229.527344 154.210938 230.152344 C 166.800781 248.308594 187.777344 260.222656 211.480469 260.222656 C 225.917969 260.222656 239.335938 255.800781 250.480469 248.253906 C 250.492188 246.714844 250.265625 245.003906 250.027344 243.230469 C 249.382812 238.363281 248.585938 232.316406 253.363281 228.011719 C 253.117188 227.796875 252.867188 227.589844 252.664062 227.429688 L 252.535156 227.332031 C 248.402344 224.019531 246.175781 219.410156 246.5625 215.03125 C 246.886719 211.371094 249.8125 205.59375 253.503906 203.148438 C 254.839844 202.265625 255.742188 201.0625 256.042969 199.78125 C 256.785156 196.605469 256.183594 195.355469 254.859375 192.632812 C 253.859375 190.578125 252.621094 188.027344 251.878906 184.261719 C 250.070312 175.015625 253.417969 164.960938 260.398438 158.644531 C 261.046875 158.0625 261.703125 157.515625 262.347656 156.988281 C 264.316406 155.339844 266.359375 153.640625 266.445312 152.144531 C 266.5 151.445312 266.15625 150.390625 265.832031 149.367188 L 265.769531 149.183594 C 265.382812 147.96875 264.996094 146.761719 264.605469 145.566406 C 257.515625 137.207031 248.511719 130.542969 238.257812 126.25 C 238.3125 126.992188 238.355469 127.710938 238.386719 128.457031 C 238.527344 131.082031 238.796875 135.976562 235.632812 139.660156 C 232.417969 143.414062 227.511719 143.824219 223.929688 144.113281 L 223.496094 144.136719 C 222.808594 144.199219 222.054688 144.210938 221.261719 144.234375 C 214.492188 144.375 214.503906 145.417969 214.515625 146.742188 C 214.515625 147.117188 214.578125 147.632812 214.644531 148.160156 C 214.890625 150.324219 215.351562 154.351562 211.910156 156.835938 C 210.929688 157.535156 209.253906 158.332031 206.734375 158.160156 C 203.046875 157.921875 200.109375 156.4375 197.515625 155.125 C 195.289062 154.007812 193.363281 153.027344 191.316406 153.027344 L 191.308594 153.027344 C 190.328125 153.027344 189.542969 153.714844 189.167969 154.113281 C 188.304688 155.027344 187.832031 156.265625 187.90625 157.375 C 188.070312 159.808594 190.210938 162.273438 193.007812 163.242188 C 196.835938 164.574219 201.066406 165.199219 205.53125 165.84375 C 211.328125 166.683594 217.320312 167.546875 222.863281 170.128906 Z M 222.863281 170.128906 " fill-opacity="1" fill-rule="evenodd"/><path fill="#000000" d="M 211.480469 120.867188 C 173.082031 120.867188 141.828125 152.121094 141.828125 190.546875 C 141.828125 201.328125 144.292969 211.554688 148.679688 220.671875 C 149.078125 219.539062 149.371094 218.464844 149.378906 217.570312 C 149.390625 215.484375 149.402344 213.382812 149.421875 211.285156 C 149.46875 205.3125 153.40625 200.308594 159.203125 198.855469 C 164.96875 197.390625 170.769531 199.910156 173.621094 205.117188 L 173.707031 205.28125 L 173.726562 205.332031 C 174.890625 207.507812 175.6875 209.703125 176.460938 211.835938 C 178 216.085938 179.074219 218.765625 181.59375 220.175781 C 183.121094 221.035156 185.078125 221.488281 187.15625 221.972656 C 189.628906 222.554688 192.4375 223.210938 195.050781 224.695312 C 197.753906 226.234375 199.785156 228.410156 201.59375 230.324219 C 202.648438 231.453125 203.648438 232.53125 204.691406 233.382812 C 206.507812 234.878906 209.222656 235.535156 210.027344 234.683594 C 211.039062 233.628906 210.425781 230.269531 210.007812 228.054688 C 208.015625 217.238281 208.402344 212.652344 210.800781 202.511719 C 211.125 201.15625 211.726562 198.648438 213.632812 196.734375 C 215.09375 195.269531 216.839844 194.613281 218.117188 194.140625 C 218.398438 194.042969 218.667969 193.925781 218.9375 193.804688 C 221.960938 192.535156 224.207031 189.234375 224.273438 185.949219 C 224.335938 182.667969 222.21875 179.289062 219.246094 177.898438 C 214.824219 175.84375 209.714844 175.101562 204.28125 174.316406 C 199.613281 173.636719 194.78125 172.9375 190.167969 171.324219 C 184.078125 169.191406 179.742188 163.820312 179.355469 157.933594 C 179.128906 154.5 180.453125 150.875 182.914062 148.238281 C 185.21875 145.785156 188.1875 144.449219 191.308594 144.449219 C 191.328125 144.449219 191.328125 144.449219 191.351562 144.449219 C 195.40625 144.46875 198.570312 146.0625 201.367188 147.472656 C 203.078125 148.335938 204.59375 149.097656 206.15625 149.441406 L 206.121094 149.140625 C 206.035156 148.429688 205.949219 147.632812 205.941406 146.804688 C 205.84375 135.988281 216.902344 135.742188 221.066406 135.65625 C 221.722656 135.632812 222.355469 135.625 222.765625 135.589844 L 223.21875 135.558594 C 225.550781 135.363281 228.199219 135.140625 229.136719 134.0625 C 230.0625 132.996094 229.910156 130.21875 229.835938 128.898438 C 229.738281 127.011719 229.609375 125.117188 229.4375 123.234375 C 223.722656 121.683594 217.699219 120.867188 211.480469 120.867188 Z M 211.480469 120.867188 " fill-opacity="1" fill-rule="evenodd"/><g clip-path="url(#496cefa906)"><path fill="#000000" d="M 235.085938 115.949219 C 249.363281 120.480469 261.875 129.003906 271.308594 140.207031 C 271.609375 140.476562 271.859375 140.789062 272.074219 141.132812 C 283.089844 154.621094 289.695312 171.828125 289.695312 190.554688 C 289.695312 216.484375 277.023438 239.496094 257.558594 253.746094 C 257.257812 254.046875 256.914062 254.28125 256.539062 254.488281 C 243.800781 263.507812 228.253906 268.8125 211.480469 268.8125 C 184.035156 268.8125 159.847656 254.59375 145.882812 233.121094 C 145.679688 232.863281 145.507812 232.59375 145.355469 232.304688 C 137.695312 220.207031 133.265625 205.894531 133.265625 190.554688 C 133.265625 147.410156 168.347656 112.300781 211.492188 112.300781 C 219.429688 112.300781 227.101562 113.496094 234.34375 115.710938 C 234.589844 115.765625 234.847656 115.839844 235.085938 115.949219 Z M 107.261719 81.832031 L 107.261719 366.160156 L 312.160156 366.160156 C 314.128906 366.160156 315.730469 364.558594 315.730469 362.585938 L 315.699219 80.5625 C 313.871094 81.378906 311.835938 81.820312 309.707031 81.820312 Z M 162.300781 302.746094 L 260.667969 302.746094 C 263.035156 302.746094 264.949219 304.664062 264.949219 307.03125 C 264.949219 309.410156 263.035156 311.3125 260.667969 311.3125 L 162.300781 311.3125 C 159.933594 311.3125 158.019531 309.410156 158.019531 307.03125 C 158.019531 304.664062 159.933594 302.746094 162.300781 302.746094 Z M 181.828125 327.113281 L 241.152344 327.113281 C 243.519531 327.113281 245.433594 329.019531 245.433594 331.398438 C 245.433594 333.765625 243.519531 335.679688 241.152344 335.679688 L 181.839844 335.679688 C 179.472656 335.679688 177.558594 333.765625 177.558594 331.398438 C 177.546875 329.03125 179.460938 327.113281 181.828125 327.113281 Z M 181.828125 327.113281 " fill-opacity="1" fill-rule="evenodd"/></g></svg>